<?xml version="1.0" standalone="no"?>
<!DOCTYPE svg PUBLIC "-//W3C//DTD SVG 20010904//EN"
 "http://www.w3.org/TR/2001/REC-SVG-20010904/DTD/svg10.dtd">
<svg version="1.0" xmlns="http://www.w3.org/2000/svg"
 width="292.000000pt" height="280.000000pt" viewBox="0 0 292.000000 280.000000"
 preserveAspectRatio="xMidYMid meet">

<g transform="translate(0.000000,280.000000) scale(0.100000,-0.100000)"
fill="#000000" stroke="none">
<path d="M1085 2655 c-466 -88 -829 -458 -896 -914 -16 -113 -6 -323 20 -427
42 -169 145 -359 263 -485 127 -136 340 -264 513 -309 320 -83 657 -22 920
165 l67 48 357 -357 c319 -318 360 -356 388 -356 83 0 136 75 102 143 -6 12
-166 178 -356 368 l-345 346 50 74 c133 197 193 391 193 622 -1 138 -12 217
-47 330 -95 298 -331 561 -612 677 -188 79 -436 109 -617 75z m304 -200 c129
-13 282 -74 401 -160 164 -119 274 -277 336 -481 24 -79 27 -105 27 -234 1
-119 -3 -159 -21 -225 -93 -337 -354 -582 -691 -650 -102 -21 -302 -16 -396
10 -76 21 -206 81 -276 128 -122 83 -246 231 -310 372 -76 168 -96 401 -50
574 86 324 342 579 656 651 63 15 191 28 230 24 17 -2 59 -6 94 -9z"/>
</g>
</svg>
